<svg xmlns="http://www.w3.org/2000/svg" xmlns:xlink="http://www.w3.org/1999/xlink" width="308" zoomAndPan="magnify" viewBox="0 0 230.87999 72" height="96" preserveAspectRatio="xMidYMid meet" version="1.0"><defs><clipPath id="d2cf3aa51f"><path d="M 0 8 L 230.128906 8 L 230.128906 15 L 0 15 Z M 0 8 " clip-rule="nonzero"/></clipPath><clipPath id="429446bad1"><path d="M 0 0.0195312 L 104 0.0195312 L 104 23 L 0 23 Z M 0 0.0195312 " clip-rule="nonzero"/></clipPath><clipPath id="63bece653b"><path d="M 103 36 L 111 36 L 111 71.230469 L 103 71.230469 Z M 103 36 " clip-rule="nonzero"/></clipPath><clipPath id="ef890ae971"><path d="M 120 36 L 128 36 L 128 71.230469 L 120 71.230469 Z M 120 36 " clip-rule="nonzero"/></clipPath></defs><g clip-path="url(#d2cf3aa51f)"><path fill="#a6a6a6" d="M 0 8.835938 L 230.269531 8.835938 L 230.269531 14.132812 L 0 14.132812 Z M 0 8.835938 " fill-opacity="1" fill-rule="nonzero"/></g><g clip-path="url(#429446bad1)"><path fill="#2e2e2e" d="M 103.035156 11.484375 C 103.035156 12.398438 102.921875 13.285156 102.722656 14.132812 C 101.523438 19.183594 96.988281 22.941406 91.574219 22.941406 C 86.152344 22.941406 81.628906 19.183594 80.429688 14.132812 L 0 14.132812 L 0 8.835938 L 80.429688 8.835938 C 81.628906 3.789062 86.164062 0.0273438 91.574219 0.0273438 C 97 0.0273438 101.535156 3.789062 102.722656 8.835938 C 102.921875 9.6875 103.035156 10.574219 103.035156 11.484375 Z M 103.035156 11.484375 " fill-opacity="1" fill-rule="nonzero"/></g><path fill="#2e2e2e" d="M 199.84375 51.882812 L 186.914062 44.695312 C 185.988281 44.183594 184.839844 44.847656 184.839844 45.910156 L 184.839844 60.289062 C 184.839844 61.351562 185.976562 62.027344 186.914062 61.503906 L 199.84375 54.316406 C 200.796875 53.78125 200.796875 52.40625 199.84375 51.882812 Z M 199.84375 51.882812 " fill-opacity="1" fill-rule="nonzero"/><path fill="#2e2e2e" d="M 216.550781 51.882812 L 203.617188 44.695312 C 202.695312 44.183594 201.542969 44.847656 201.542969 45.910156 L 201.542969 60.289062 C 201.542969 61.351562 202.683594 62.027344 203.617188 61.503906 L 216.550781 54.316406 C 217.5 53.78125 217.5 52.40625 216.550781 51.882812 Z M 216.550781 51.882812 " fill-opacity="1" fill-rule="nonzero"/><g clip-path="url(#63bece653b)"><path fill="#2e2e2e" d="M 106.707031 36.351562 C 104.769531 36.351562 103.207031 37.414062 103.207031 38.722656 L 103.207031 69.210938 C 103.207031 70.523438 104.785156 71.585938 106.707031 71.585938 C 108.644531 71.585938 110.207031 70.523438 110.207031 69.210938 L 110.207031 38.722656 C 110.21875 37.414062 108.644531 36.351562 106.707031 36.351562 Z M 106.707031 36.351562 " fill-opacity="1" fill-rule="nonzero"/></g><g clip-path="url(#ef890ae971)"><path fill="#2e2e2e" d="M 123.550781 36.351562 C 121.613281 36.351562 120.050781 37.414062 120.050781 38.722656 L 120.050781 69.210938 C 120.050781 70.523438 121.625 71.585938 123.550781 71.585938 C 125.476562 71.585938 127.050781 70.523438 127.050781 69.210938 L 127.050781 38.722656 C 127.050781 37.414062 125.476562 36.351562 123.550781 36.351562 Z M 123.550781 36.351562 " fill-opacity="1" fill-rule="nonzero"/></g><path fill="#2e2e2e" d="M 30.75 52.292969 L 43.945312 44.960938 C 44.894531 44.433594 46.058594 45.121094 46.058594 46.195312 L 46.058594 60.851562 C 46.058594 61.941406 44.894531 62.613281 43.945312 62.089844 L 30.75 54.753906 C 29.777344 54.230469 29.777344 52.832031 30.75 52.292969 Z M 30.75 52.292969 " fill-opacity="1" fill-rule="nonzero"/><path fill="#2e2e2e" d="M 13.71875 52.292969 L 26.914062 44.960938 C 27.863281 44.433594 29.027344 45.121094 29.027344 46.195312 L 29.027344 60.851562 C 29.027344 61.941406 27.863281 62.613281 26.914062 62.089844 L 13.71875 54.753906 C 12.746094 54.230469 12.746094 52.832031 13.71875 52.292969 Z M 13.71875 52.292969 " fill-opacity="1" fill-rule="nonzero"/></svg>